<svg version="1.1" viewBox="0 0 512 512" xmlns="http://www.w3.org/2000/svg">
 <g fill="#0094ff" stroke-linecap="round" stroke-linejoin="round" stroke-width="5">
  <path d="m256-0.236a256 256 0 0 0-36.4 2.61 256 256 0 0 0-35.7 7.76 256 256 0 0 0-34.2 12.8 256 256 0 0 0-32.1 17.5 256 256 0 0 0-29.2 21.9 256 256 0 0 0-25.8 25.8 256 256 0 0 0-21.9 29.2 256 256 0 0 0-17.5 32.1 256 256 0 0 0-12.8 34.2 256 256 0 0 0-7.76 35.7 256 256 0 0 0-2.61 36.4 256 256 0 0 0 2.61 36.4 256 256 0 0 0 7.76 35.7 256 256 0 0 0 12.8 34.2 256 256 0 0 0 17.5 32.1 256 256 0 0 0 21.9 29.2 256 256 0 0 0 25.8 25.8 256 256 0 0 0 29.2 21.9 256 256 0 0 0 32.1 17.5 256 256 0 0 0 34.2 12.8 256 256 0 0 0 35.7 7.76 256 256 0 0 0 36.4 2.61 256 256 0 0 0 36.4-2.61 256 256 0 0 0 35.7-7.76 256 256 0 0 0 34.2-12.8 256 256 0 0 0 32.1-17.5 256 256 0 0 0 29.2-21.9 256 256 0 0 0 25.8-25.8 256 256 0 0 0 21.9-29.2 256 256 0 0 0 17.5-32.1 256 256 0 0 0 12.8-34.2 256 256 0 0 0 7.76-35.7 256 256 0 0 0 2.61-36.4 256 256 0 0 0-0.309-12.6 256 256 0 0 0-0.924-12.5 256 256 0 0 0-1.54-12.5 256 256 0 0 0-2.15-12.4 256 256 0 0 0-2.75-12.3 256 256 0 0 0-3.35-12.1 256 256 0 0 0-3.94-11.9 256 256 0 0 0-4.52-11.7 256 256 0 0 0-5.09-11.5 256 256 0 0 0-5.65-11.2 256 256 0 0 0-6.19-10.9 256 256 0 0 0-6.72-10.6 256 256 0 0 0-7.23-10.3 256 256 0 0 0-7.73-9.91 256 256 0 0 0-8.21-9.51 256 256 0 0 0-8.66-9.1 256 256 0 0 0-9.1-8.66 256 256 0 0 0-9.52-8.21 256 256 0 0 0-9.9-7.73 256 256 0 0 0-10.3-7.23 256 256 0 0 0-10.6-6.72 256 256 0 0 0-10.9-6.19 256 256 0 0 0-11.2-5.65 256 256 0 0 0-11.5-5.09 256 256 0 0 0-11.7-4.52 256 256 0 0 0-11.9-3.94 256 256 0 0 0-12.1-3.35 256 256 0 0 0-12.3-2.75 256 256 0 0 0-12.4-2.15 256 256 0 0 0-12.5-1.54 256 256 0 0 0-12.5-0.924 256 256 0 0 0-12.6-0.309zm0 136a120 120 0 0 1 8.56 0.307 120 120 0 0 1 8.52 0.914 120 120 0 0 1 8.43 1.52 120 120 0 0 1 8.3 2.12 120 120 0 0 1 8.13 2.71 120 120 0 0 1 7.91 3.28 120 120 0 0 1 7.66 3.83 120 120 0 0 1 7.37 4.37 120 120 0 0 1 7.04 4.89 120 120 0 0 1 6.67 5.38 120 120 0 0 1 6.27 5.84 120 120 0 0 1 5.84 6.27 120 120 0 0 1 5.38 6.67 120 120 0 0 1 4.89 7.04 120 120 0 0 1 4.37 7.37 120 120 0 0 1 3.83 7.66 120 120 0 0 1 3.28 7.91 120 120 0 0 1 2.71 8.13 120 120 0 0 1 2.12 8.3 120 120 0 0 1 1.52 8.43 120 120 0 0 1 0.916 8.52 120 120 0 0 1 0.305 8.56 120 120 0 0 1-2.3 23.4 120 120 0 0 1-6.83 22.5 120 120 0 0 1-11.1 20.7 120 120 0 0 1-14.9 18.2 120 120 0 0 1-18.2 14.9 120 120 0 0 1-20.7 11.1 120 120 0 0 1-22.5 6.83 120 120 0 0 1-23.4 2.3 120 120 0 0 1-23.4-2.3 120 120 0 0 1-22.5-6.83 120 120 0 0 1-20.7-11.1 120 120 0 0 1-18.2-14.9 120 120 0 0 1-14.9-18.2 120 120 0 0 1-11.1-20.7 120 120 0 0 1-6.83-22.5 120 120 0 0 1-2.31-23.4 120 120 0 0 1 2.31-23.4 120 120 0 0 1 6.83-22.5 120 120 0 0 1 11.1-20.7 120 120 0 0 1 14.9-18.2 120 120 0 0 1 18.2-14.9 120 120 0 0 1 20.7-11.1 120 120 0 0 1 22.5-6.83 120 120 0 0 1 23.4-2.31z"/>
  <circle cx="256" cy="256" r="68"/>
 </g>
</svg>
